<svg width="202" height="100" viewBox="0 0 202 100" fill="none" xmlns="http://www.w3.org/2000/svg">
<g id="Group 44">
<g id="Books">
<g id="Books_2">
<g id="Books_3">
<g id="Group">
<path id="Vector" d="M26.2199 96.746L26.9775 68.2628C27.02 66.862 25.7063 65.3342 24.021 65.0341C23.0512 64.8591 20.5171 64.8104 19.3858 65.0527C17.6603 65.4571 17.4013 66.7999 17.0767 68.0523L16.3192 96.5355C16.3192 96.5355 18.1699 95.3041 21.2976 95.33C24.5384 95.3317 26.2199 96.746 26.2199 96.746Z" fill="#E7EFF2"/>
<path id="Vector_2" d="M16.3293 97.02C16.3401 96.635 16.3415 96.2172 16.3523 95.8322C16.3924 95.1278 16.3856 94.3986 16.4257 93.6942C16.4859 92.6376 16.5084 91.589 16.5593 90.4996C16.6513 88.4272 16.6962 86.3301 16.7882 84.2578C16.933 80.5389 16.9032 70.1427 17.0329 68.0623C17.2806 64.5649 25.46 64.205 26.7288 67.8299C26.8689 68.1826 26.7266 73.8841 26.7125 75.244L26.5599 81.1911C26.4562 83.927 26.3054 86.6382 26.1547 89.3494C26.0749 90.619 26.0328 91.8805 25.9908 93.142C25.9394 94.3707 25.9821 95.6488 25.8082 96.8689C25.7505 97.2292 26.2016 97.5501 26.5974 97.5349C27.0211 97.4971 27.4746 97.2427 27.4192 96.9066C27.2723 95.8248 27.3515 94.6945 27.3554 93.5804C27.3593 92.4662 27.4009 91.344 27.4332 90.189C27.507 87.9117 27.5809 85.6345 27.6924 83.3492C27.827 79.876 28.0277 76.354 27.8796 72.8718L28.0395 67.5145L28.5158 49.7386C28.5667 48.6492 27.8917 47.6804 26.8949 47.1284C26.6975 46.9968 26.5094 46.8979 26.359 46.7909C25.7854 46.4615 25.1457 46.1809 24.4869 45.9741C23.207 45.5524 21.7851 45.335 20.4092 45.4209C18.9486 45.4901 17.5996 45.9529 17.0114 47.1226C16.9639 47.2372 16.8787 47.3598 16.8405 47.5071C16.433 48.1858 16.242 48.9226 16.1264 49.6431C15.9825 50.4046 15.8762 51.1579 15.8547 51.928C15.7455 53.5169 15.7118 55.0898 15.6497 56.7035C15.5347 59.9637 15.4575 63.2158 15.3709 66.4351C15.1787 72.9474 15.0335 79.4844 14.8413 85.9967C14.7156 89.6419 14.5521 93.2952 14.5111 96.9571C14.47 97.94 16.326 97.9949 16.3293 97.02Z" fill="#F6CF3C"/>
<g id="Group_2">
<path id="Vector_3" d="M25.9081 62.579C25.7955 62.4637 25.8146 62.3899 25.6736 62.3156C25.5233 62.2084 25.3447 62.1421 25.1567 62.043C24.8371 61.9024 24.4798 61.7698 24.1318 61.6701C23.3887 61.446 22.5699 61.3775 21.7696 61.3748C21.007 61.364 20.1969 61.4679 19.4524 61.6624C19.0755 61.7432 18.7172 61.8897 18.3966 62.0281C18.1137 62.1585 17.6331 62.2963 17.5474 62.5587C17.5092 62.7063 17.6125 62.7887 17.7819 62.8221C18.0736 62.8642 18.404 62.6191 18.6492 62.4968C18.9698 62.3584 19.2997 62.2528 19.6766 62.172C20.3457 61.9937 21.0804 61.9059 21.796 61.892C22.5116 61.878 23.2174 61.9707 23.8665 62.1453C24.2052 62.2121 24.5532 62.3118 24.8728 62.4524C25.0515 62.5186 25.1831 62.5601 25.3618 62.6264C25.5405 62.6927 25.6535 62.6684 25.8229 62.7018C25.9076 62.7185 25.9643 62.6367 25.9081 62.579Z" fill="#E7EFF2"/>
</g>
<g id="Group_3">
<path id="Vector_4" d="M26.6602 49.4753C26.4634 49.204 26.1345 49.0307 25.8432 48.8492C25.4673 48.6512 25.0536 48.4612 24.6493 48.304C23.803 47.9977 22.8998 47.7733 21.9869 47.6555C20.5752 47.4705 18.8414 47.8422 17.8498 48.7166C17.5003 49.0354 18.0637 49.472 18.3848 49.1941C19.2727 48.3768 20.7612 48.1273 22.0413 48.2709C22.8695 48.372 23.6503 48.5878 24.4403 48.8365C24.7976 48.9689 25.155 49.1013 25.5216 49.2665C25.8413 49.407 26.1325 49.5884 26.4713 49.6551C26.6029 49.6966 26.7351 49.5986 26.6602 49.4753Z" fill="#E7EFF2"/>
</g>
<g id="Group_4">
<path id="Vector_5" d="M25.1008 68.8381C25.0615 71.9424 25.0506 75.006 25.0113 78.1103C24.9597 82.0174 24.7479 85.924 24.5738 89.8225C24.4723 91.8618 24.3614 93.8683 24.2977 95.8995C24.2682 96.2189 24.8715 96.2291 24.9009 95.9097C25.0461 92.1914 25.1819 88.4402 25.2801 84.6971C25.3875 80.9868 25.5327 77.2684 25.5554 73.5414C25.5515 71.9769 25.5477 70.4123 25.3836 68.8472C25.3748 68.6752 25.092 68.666 25.1008 68.8381Z" fill="#D8E5E5"/>
</g>
<g id="Group_5">
<path id="Vector_6" d="M23.4755 67.7613C23.2839 68.6371 23.3936 69.5877 23.3622 70.4641C23.3779 71.3652 23.3842 72.2335 23.3621 73.1426C23.3557 74.9529 23.3586 76.796 23.3144 78.6143C23.2638 82.2429 23.1377 85.8876 22.9269 89.5157C22.7876 91.563 22.6954 93.6351 22.4807 95.6986C22.4606 96.0508 23.1486 96.0777 23.1687 95.7255C23.5433 88.4447 23.8803 81.1719 23.8967 73.8981C23.8909 72.8905 23.8757 71.8502 23.8699 70.8426C23.864 69.835 23.9621 68.7705 23.6921 67.8194C23.721 67.6393 23.5138 67.614 23.4755 67.7613Z" fill="#D8E5E5"/>
</g>
<g id="Group_6">
<path id="Vector_7" d="M20.4255 67.7214C20.3279 68.6467 20.3529 69.5807 20.3308 70.4898C20.3087 71.399 20.296 72.341 20.2739 73.2502C20.192 75.0766 20.1101 76.903 19.9435 78.7128C19.6856 82.3162 19.3146 85.9438 19.1415 89.5638C19.0493 91.636 18.9949 93.7001 18.9782 95.7561C18.9581 96.1082 19.6367 96.1023 19.6191 95.7582C19.4624 92.1043 19.7677 88.3864 20.0163 84.7502C20.3025 81.1059 20.6358 77.4864 20.7619 73.8416C20.7845 72.7932 20.8541 71.7695 20.8389 70.7291C20.8331 69.7215 20.8556 68.6731 20.6896 67.665C20.7278 67.5177 20.4637 67.5741 20.4255 67.7214Z" fill="#D8E5E5"/>
</g>
<g id="Group_7">
<path id="Vector_8" d="M22.2334 67.6108C22.1359 68.5361 22.1608 69.4701 22.1387 70.3792C22.1167 71.2884 22.1039 72.2304 22.0818 73.1396C22 74.966 21.9181 76.7924 21.7514 78.6022C21.4936 82.2056 21.1225 85.8332 20.9495 89.4532C20.8573 91.5254 20.8028 93.5894 20.7861 95.6455C20.766 95.9976 21.4447 95.9917 21.427 95.6476C21.2703 91.9937 21.5757 88.2758 21.8242 84.6396C22.1105 80.9953 22.4438 77.3758 22.5698 73.731C22.5924 72.6826 22.662 71.6589 22.6469 70.6185C22.641 69.6109 22.6636 68.5625 22.4975 67.5544C22.498 67.4151 22.2339 67.4716 22.2334 67.6108Z" fill="#D8E5E5"/>
</g>
<g id="Group_8">
<path id="Vector_9" d="M18.4265 68.7078C18.4528 71.9025 18.5453 75.0484 18.4115 78.2426C18.2668 81.8218 17.9619 85.4004 17.704 89.0038C17.5354 91.3705 17.3668 93.7373 17.1511 96.0793C17.1217 96.3987 17.7719 96.4337 17.792 96.0815C18.0332 91.8555 18.3592 87.6462 18.6475 83.445C18.8475 80.2018 19.0475 76.9587 19.0496 73.723C19.0555 72.052 19.0521 70.3482 18.7092 68.7169C18.6627 68.5529 18.427 68.5685 18.4265 68.7078Z" fill="#D8E5E5"/>
</g>
</g>
</g>
<path id="Rope" d="M15.6301 56.8562C15.7966 56.6771 17.8133 55.8768 20.312 55.6234M28.2849 58.0888C26.1829 55.7045 22.9739 55.3536 20.312 55.6234M20.312 0V55.6234" stroke="#0D0842"/>
</g>
<g id="Books_4">
<g id="Books_5">
<g id="Group_9">
<path id="Vector_10" d="M58.382 66.5717C58.3461 65.1554 59.2581 63.9923 60.4774 63.9614L63.4014 63.8806C64.5831 63.8594 65.5865 64.9893 65.6488 66.3632L66.2166 85.783L66.8263 85.7675C66.9396 85.3817 66.9777 85.0155 66.9933 84.5837L65.5791 36.2288C65.5172 34.4984 64.3373 33.0935 62.9562 33.1307L59.1741 33.2201C57.793 33.2573 56.685 34.685 56.7469 36.4154L58.161 84.7704C58.1831 85.1923 58.2428 85.6046 58.3666 85.9645L58.9762 85.9491L58.382 66.5717Z" fill="#60C697"/>
<path id="Vector_11" d="M58.4247 66.6688C58.3887 65.2524 59.3006 64.0892 60.5196 64.0582L63.4432 63.9773C64.6247 63.9561 65.628 65.086 65.6904 66.4599L66.2629 85.773L67.0719 85.7414L66.1511 55.0414C66.0891 53.3109 64.9093 51.9059 63.5284 51.9432L59.747 52.0327C58.3661 52.07 57.2583 53.4979 57.3203 55.2284L58.241 85.9285L59.05 85.8969L58.4247 66.6688Z" fill="#60C697"/>
<path id="Vector_12" d="M66.1996 85.4684L65.3308 55.7536C65.2723 54.2717 64.2953 53.0993 63.0762 53.1303L60.1525 53.2112C58.971 53.2324 58.0327 54.438 58.0535 55.9296L58.9223 85.6444C58.9223 85.6444 60.2145 84.2757 62.4798 84.1874C64.8956 84.06 66.1996 85.4684 66.1996 85.4684Z" fill="#E7EFF2"/>
</g>
<g id="Group_10">
<path id="Vector_13" d="M64.6651 52.3956C64.6262 53.4747 64.7491 54.5476 64.7855 55.6073C64.8219 56.667 64.9561 57.7726 65.1167 58.8357C65.3627 60.9815 65.5822 63.1697 65.7039 65.312C66.0074 69.6523 66.0626 73.9857 66.0047 78.3483C65.9906 80.8109 65.8898 83.2603 65.7891 85.7096C65.7579 86.573 67.2636 86.5394 67.2947 85.6761C67.6099 76.9348 67.639 68.1963 66.6216 59.5151C66.4913 58.3016 66.312 57.0651 66.0199 55.8578C65.8549 55.2591 65.6636 54.7028 65.4987 54.104C65.3338 53.5053 65.1801 52.9393 64.9399 52.36C64.8836 52.1964 64.6465 52.2222 64.6651 52.3956Z" fill="#60C697"/>
</g>
<g id="Group_11">
<path id="Vector_14" d="M57.2982 34.742C57.4374 34.6701 57.539 34.608 57.6894 34.5689L57.6781 34.5361C57.539 34.608 57.3998 34.6799 57.2982 34.742C57.2719 34.7845 57.2606 34.7517 57.2982 34.742Z" fill="#F3B953"/>
</g>
<g id="Group_12">
<path id="Vector_15" d="M57.7956 33.976C57.1252 34.2922 56.718 34.8966 56.6194 35.5636C56.4792 36.3483 56.4143 37.1136 56.3495 37.8788C56.1894 39.5596 56.0782 41.2634 56.0047 42.9574C55.8915 46.4436 55.9777 49.9138 56.1016 53.3742C56.1991 56.8771 56.4096 60.3507 56.4582 63.8307C56.518 67.3433 56.6532 70.8365 56.8861 74.3755C57.0156 76.3021 57.1187 78.2711 57.3347 80.2109C57.4239 81.1856 57.562 82.1834 57.6511 83.1581C57.7516 84.1656 57.8256 85.2156 58.1143 86.1743C58.3242 86.9039 59.4762 86.6768 59.5147 85.9541C59.5835 85.0809 59.4527 84.2239 59.3709 83.3897C59.2778 82.5229 59.2337 81.679 59.1782 80.8025C59.041 79.0917 58.9037 77.381 58.8041 75.6606C58.5673 72.2294 58.4058 68.7788 58.3308 65.3413C58.267 61.9366 58.128 58.5513 58.0266 55.1564C57.8763 51.7384 57.7373 48.3532 57.7488 44.929C57.7548 43.0386 57.8473 41.1614 57.9775 39.2745C58.035 38.3687 58.1679 37.4433 58.2518 36.495C58.2747 36.204 58.2864 35.8802 58.3206 35.6219C58.3811 35.3211 58.3175 35.0168 58.5624 34.7752C58.977 34.3114 58.3642 33.7218 57.7956 33.976Z" fill="#60C697"/>
</g>
<g id="Group_13">
<path id="Vector_16" d="M64.5613 34.4224C64.4001 34.0718 64.0996 33.7931 63.7728 33.5568C63.446 33.3206 63.108 33.0516 62.7284 32.9005C61.834 32.562 60.8151 32.5769 59.8451 32.6149C58.9615 32.666 58.1678 32.9793 57.6106 33.6236C57.1437 34.1731 56.5748 35.1415 57.1605 35.7743C57.2919 35.9186 57.5777 35.9157 57.7169 35.8439C58.2624 35.5237 58.2145 34.7869 58.6286 34.3225C59.0579 33.7828 59.6933 33.7247 60.3776 33.6897C61.0996 33.6448 61.8703 33.623 62.5918 33.9351C63.178 34.2109 63.7037 34.788 64.4407 34.6678C64.5159 34.6483 64.5838 34.4879 64.5613 34.4224Z" fill="#60C697"/>
</g>
<g id="Group_14">
<path id="Vector_17" d="M61.5506 33.7394C62.2547 33.5214 63.0974 33.9447 63.5411 34.4C64.1163 34.9994 64.2583 35.8891 64.3289 36.6905C64.5298 38.7053 64.6177 40.7495 64.7433 42.7838C64.9794 46.9277 65.0912 51.0682 65.1277 55.2281C65.149 56.363 65.1326 57.5076 65.1538 58.6424C65.1456 59.2147 65.1751 59.7773 65.1669 60.3496C65.1816 60.6308 65.2076 60.9448 65.26 61.2164C65.3236 61.5206 65.5002 61.7956 65.5751 62.1326C65.6387 62.4368 66.1996 62.3985 66.2715 62.1304C66.3433 61.8624 66.464 61.6173 66.5359 61.3492C66.6077 61.0812 66.6194 60.7574 66.6047 60.4762C66.6129 59.9039 66.5834 59.3413 66.5916 58.769C66.5816 57.6669 66.5339 56.5745 66.5352 55.5051C66.4775 53.3106 66.4311 51.1488 66.3358 48.9641C66.2669 46.7369 66.1604 44.5194 66.0426 42.2692C65.9949 41.1768 65.9096 40.0942 65.8243 39.0116C65.7615 37.9944 65.6987 36.9772 65.5229 35.9893C65.3472 35.0014 64.9607 33.9967 64.0768 33.3347C63.2155 32.7381 62.1392 32.5892 61.235 33.1797C60.9187 33.3329 61.1364 33.8466 61.5506 33.7394Z" fill="#60C697"/>
</g>
<g id="Group_15">
<path id="Vector_18" d="M65.9913 57.0071C66.1724 56.4608 66.0453 55.8519 65.9406 55.3084C65.7983 54.7748 65.5584 54.1952 65.2016 53.7529C64.323 52.6259 62.9697 52.2641 61.5334 52.1379C60.8152 52.0748 60.0971 52.0117 59.4087 52.1548C58.6452 52.3174 58.0805 52.8207 57.6624 53.3929C56.9205 54.3345 55.8202 56.2608 57.0789 57.1821C57.2968 57.3395 57.6691 57.3498 57.8273 57.0947C57.9743 56.8069 58.0422 56.6466 58.1027 56.3456C58.1481 56.1198 58.2198 55.8515 58.3028 55.616C58.4576 55.1122 58.7213 54.6871 59.0227 54.2522C59.2713 53.9023 59.5536 53.6507 60.0163 53.5662C60.5654 53.4949 61.1594 53.5545 61.7047 53.5913C62.7199 53.6842 63.5431 53.934 64.1363 54.7072C64.6807 55.4574 64.7698 56.4328 65.3669 57.0979C65.5208 57.3076 65.8819 57.2851 65.9913 57.0071Z" fill="#60C697"/>
</g>
<path id="Vector_19" d="M64.4744 50.3412C64.5236 50.0075 64.5654 49.533 64.3401 49.235C64.4305 49.1402 64.4832 49.0552 64.4382 48.9242C64.1869 48.312 63.4726 48.141 62.8449 47.9833C62.1795 47.8353 61.5102 47.7953 60.8258 47.8306C60.1791 47.8561 59.3819 47.9206 58.8251 48.208C58.0539 48.5868 58.4103 49.3856 58.5752 49.9847C58.6651 50.2465 58.992 50.4825 59.3154 50.4698C60.0374 50.4247 60.8195 50.4354 61.5263 50.4656C62.2332 50.4958 63.0266 50.5393 63.7144 50.7527C63.9963 50.8577 64.4139 50.6422 64.4744 50.3412Z" fill="#E7EFF2"/>
<g id="Group_16">
<path id="Vector_20" d="M59.3154 34.6442C59.093 34.9514 59.1263 35.406 59.0882 35.7723C59.0727 36.204 59.0459 36.603 59.0679 37.025C59.0632 37.8459 59.081 38.7323 59.2381 39.547C59.3653 40.1555 60.3666 39.9673 60.3748 39.3949C60.3795 38.574 60.2224 37.7594 60.1519 36.9579C60.1034 36.5784 60.0813 36.1565 60.0328 35.777C59.9956 35.4302 59.9735 35.0083 59.7745 34.6678C59.6693 34.4813 59.4209 34.4743 59.3154 34.6442Z" fill="#E7EFF2"/>
</g>
<g id="Group_17">
<path id="Vector_21" d="M61.0891 34.6808C60.64 35.7595 60.74 37.1236 60.9607 38.2426C61.0243 38.5469 61.2272 38.7794 61.5885 38.757C61.8745 38.7542 62.1947 38.493 62.1799 38.2116C62.1016 37.626 62.012 37.0077 61.9713 36.4123C61.9306 35.817 61.8899 35.2216 61.7363 34.6555C61.6351 34.361 61.2098 34.4356 61.0891 34.6808Z" fill="#E7EFF2"/>
</g>
<g id="Group_18">
<path id="Vector_22" d="M62.7658 34.6715C62.5542 35.3679 62.6737 36.1923 62.6728 36.9053C62.6724 37.2618 62.7209 37.6413 62.7317 38.0305C62.7426 38.4198 62.7421 38.7763 62.9525 39.1495C63.1178 39.3917 63.5769 39.4153 63.724 39.1277C63.8862 38.7649 63.8602 38.4509 63.8607 38.0944C63.8498 37.7051 63.839 37.3159 63.7793 36.9037C63.6936 36.1775 63.7359 35.3468 63.4244 34.6791C63.2742 34.3616 62.864 34.361 62.7658 34.6715Z" fill="#E7EFF2"/>
</g>
<g id="Group_19">
<path id="Vector_23" d="M63.2153 55.4463C63.1802 56.4176 63.2919 57.4577 63.3435 58.4422C63.3838 59.394 63.4617 60.336 63.502 61.2877C63.5938 63.2239 63.7345 65.1832 63.8264 67.1194C64.0364 70.9494 64.047 74.7954 64.1705 78.6122C64.2281 80.8067 64.2745 82.9685 64.2832 85.1401C64.2902 85.6372 65.1484 85.6288 65.1415 85.1316C65.082 81.2626 64.9737 77.3707 64.7788 73.4655C64.6869 71.5293 64.5462 69.5701 64.4544 67.6338C64.3625 65.6976 64.2707 63.7614 64.13 61.8022C64.0447 60.7195 63.9594 59.6369 63.8741 58.5542C63.8 57.5043 63.7524 56.4119 63.5654 55.3913C63.5355 55.1852 63.1966 55.2729 63.2153 55.4463Z" fill="#D8E5E5"/>
</g>
<g id="Group_20">
<path id="Vector_24" d="M61.7724 54.1113C62.083 62.0491 62.3936 69.9869 62.6177 77.9115C62.6866 80.1388 62.7555 82.366 62.8244 84.5933C62.8314 85.0904 63.6783 85.0493 63.6826 84.5849C63.4096 76.6373 63.0237 68.719 62.5889 60.7777C62.4711 58.5275 62.3269 56.3197 62.1714 54.0792C62.1039 53.8829 61.7425 53.9052 61.7724 54.1113Z" fill="#D8E5E5"/>
</g>
<g id="Group_21">
<path id="Vector_25" d="M60.2723 54.7518C60.0153 55.6736 60.1647 56.7041 60.1937 57.6231C60.234 58.5748 60.2743 59.5266 60.3145 60.4784C60.38 62.4571 60.483 64.426 60.5485 66.4047C60.6945 70.2869 60.8141 74.2116 60.9601 78.0938C61.029 80.3211 61.0866 82.5156 61.1555 84.7429C61.1737 85.2727 62.0696 85.2545 62.0514 84.7247C61.8234 76.908 61.4713 69.0879 61.0326 61.2546C60.9849 60.1622 60.8996 59.0795 60.852 57.9871C60.8225 57.4246 60.8043 56.8948 60.7372 56.342C60.6701 55.7891 60.6519 55.2593 60.4719 54.7358C60.4493 54.6703 60.3251 54.6668 60.2723 54.7518Z" fill="#D8E5E5"/>
</g>
<g id="Group_22">
<path id="Vector_26" d="M59.1847 56.3541C59.1428 56.8283 59.0783 57.237 59.074 57.7014C59.0697 58.1658 59.0277 58.6399 59.0346 59.137C59.026 60.0658 59.0174 60.9946 59.0088 61.9234C59.0179 63.7385 59.0159 65.5208 59.1003 67.3164C59.2052 70.9598 59.3966 74.6165 59.6257 78.2633C59.7249 80.3402 59.873 82.4401 60.0475 84.4974C60.0583 84.8866 60.7547 84.8845 60.695 84.4723C60.1126 77.1751 59.9028 69.8882 59.6441 62.5785C59.6077 61.5188 59.5826 60.4918 59.5086 59.4419C59.4904 58.9121 59.4722 58.3822 59.4652 57.8851C59.447 57.3553 59.3912 56.8352 59.3353 56.3151C59.3241 56.2824 59.1999 56.2789 59.1847 56.3541Z" fill="#D8E5E5"/>
</g>
</g>
<path id="Rope_2" d="M55.9529 44.6837C55.9529 44.6837 58.0891 43.2643 60.81 43.0636M66.1253 44.6837C64.3726 43.2767 62.4811 42.9403 60.81 43.0636M60.81 0.308105V43.0636" stroke="#0D0842"/>
</g>
<g id="Books_6">
<g id="Books_7">
<g id="Group_23">
<path id="Vector_27" d="M89.087 96.2467L85.87 64.0665C85.6948 62.4877 85.638 59.3958 87.3567 59.2493L92.9945 58.8223C94.7132 58.6758 96.4442 61.6658 96.6194 63.2447L99.546 95.4007C99.546 95.4007 97.4742 94.1465 94.1736 94.3475C90.7295 94.5572 89.087 96.2467 89.087 96.2467Z" fill="#E7EFF2"/>
</g>
<path id="Vector_28" d="M94.6587 40.0235C93.3618 38.8474 90.7483 38.0441 88.646 38.2137C86.9265 38.36 83.037 40.2277 82.6991 42.0051C82.5756 42.2635 82.5066 42.6024 82.4789 42.855C82.3889 43.5298 82.3946 44.1987 82.3558 44.9122C82.3729 46.919 82.4858 48.9199 82.6465 50.918C82.9401 55.1668 83.4252 59.4039 83.7189 63.6527C84.0269 67.4823 84.434 71.3478 84.8856 75.1686C85.3305 78.9063 85.7275 82.6468 86.1246 86.3874C86.3331 88.3825 86.634 90.3302 86.9862 92.3167C87.0776 92.8549 87.1656 93.3515 87.3048 93.8868C87.3082 93.9284 87.3149 94.0117 87.3182 94.0533C87.3986 95.0523 87.5268 96.0485 87.9388 96.9855C88.1159 97.3931 88.5533 97.4501 89.0084 97.1297C89.1898 96.9932 89.2286 96.2797 89.2152 96.1132L86.0308 64.8926C85.9973 64.4763 85.9605 64.0185 85.927 63.6022C85.9601 62.2198 87.4868 60.8722 90.1099 60.0017C93.0613 59.0276 95.4435 61.1416 96.0024 62.1116C96.1685 62.9799 96.3378 63.8899 96.5039 64.7582L97.1363 70.8269C97.143 70.9102 97.1463 70.9518 97.153 71.035C97.2802 72.6168 97.4108 74.2403 97.5859 75.8191C97.8882 78.9798 98.2384 82.1376 98.5407 85.2983C98.7325 87.0853 98.8798 88.9169 99.0238 90.7068C99.1745 92.58 99.2261 94.4174 99.4724 96.2847C99.5806 97.0311 100.774 96.9168 100.812 96.2033C100.825 94.5712 100.692 92.9061 100.558 91.2411C100.427 89.6176 100.296 87.9942 100.118 86.3737C99.8124 83.1714 99.4622 80.0136 99.1565 76.8113C98.8542 73.6506 98.6476 70.4841 98.3932 67.3205C98.3429 66.6961 98.2482 66.1163 98.1501 65.4948C98.3392 64.8558 98.2277 64.0678 98.1742 63.4018C98.0627 62.6138 97.9033 61.8288 97.8364 60.9962C97.6312 59.0427 97.6686 57.1163 97.5112 55.1598C97.1965 51.247 96.6392 47.307 96.133 43.4058C96.0081 42.4513 95.8354 41.4997 95.242 40.6992C95.0817 40.4997 94.9214 40.3003 94.7644 40.1425C94.7132 40.1038 94.7099 40.0622 94.6587 40.0235Z" fill="#F46041"/>
<g id="Group_24">
<path id="Vector_29" d="M87.3424 63.1814C87.5128 67.1029 88.2582 70.99 88.6649 74.8555C88.89 77.0588 89.0159 79.2263 89.1451 81.4353C89.271 83.6028 89.4448 85.7674 89.5707 87.9348C89.7234 90.4353 89.9239 92.9329 90.0766 95.4334C90.1033 95.7664 90.7262 95.729 90.6994 95.396C90.3964 91.0223 90.0933 86.6487 89.8382 82.2721C89.5485 78.065 89.3034 73.8133 88.6304 69.6292C88.265 67.4761 87.8516 65.3259 87.5853 63.2087C87.5719 63.0422 87.3324 63.0565 87.3424 63.1814Z" fill="#D8E5E5"/>
</g>
<g id="Group_25">
<path id="Vector_30" d="M89.0406 61.0705C88.9394 62.206 89.1224 63.2825 89.2608 64.4035C89.3958 65.4829 89.5309 66.5623 89.6214 67.6862C89.8948 69.8866 90.1203 72.0898 90.2979 74.296C90.7423 78.6193 91.0941 82.9901 91.4906 87.3163C91.695 89.8554 91.8481 92.3559 92.1484 94.8893C92.1718 95.1807 92.6989 95.1489 92.6754 94.8575C92.4127 90.3978 91.9583 85.9496 91.5518 81.4985C91.1554 77.1723 90.7556 72.8045 90.2633 68.4841C90.1149 67.2382 90.0144 65.9894 89.8659 64.7435C89.7208 63.5392 89.6203 62.2905 89.2356 61.1006C89.2256 60.9758 89.0818 60.9844 89.0406 61.0705Z" fill="#D8E5E5"/>
</g>
<g id="Group_26">
<path id="Vector_31" d="M90.9887 60.7846C91.2994 65.2415 91.8975 69.681 92.304 74.1321C92.7072 78.5415 93.0111 82.9151 93.2706 87.3332C93.4271 89.8753 93.5357 92.4202 93.6922 94.9623C93.719 95.2953 94.3419 95.2578 94.3151 94.9248C93.8408 86.0441 93.3665 77.1633 92.3173 68.3172C92.0171 65.7838 91.6689 63.2533 91.2282 60.7702C91.1703 60.6482 90.9786 60.6597 90.9887 60.7846Z" fill="#D8E5E5"/>
</g>
<g id="Group_27">
<path id="Vector_32" d="M92.6864 60.9738C92.729 62.1006 93.0111 63.213 93.1495 64.334C93.2879 65.455 93.4742 66.5731 93.6126 67.6941C93.8826 69.8529 94.1527 72.0117 94.3269 74.1763C94.7233 78.5025 94.9793 82.879 95.2799 87.2109C95.4297 89.6698 95.6307 92.1673 95.8284 94.6232C95.8586 94.9979 96.5293 94.9574 96.4992 94.5828C95.7443 85.8026 95.5197 77.0323 94.3815 68.2752C94.2331 67.0293 94.0367 65.7863 93.8404 64.5433C93.6474 63.3419 93.4477 62.0573 93.0664 60.9091C92.9538 60.7068 92.6697 60.7657 92.6864 60.9738Z" fill="#D8E5E5"/>
</g>
<g id="Group_28">
<path id="Vector_33" d="M94.9099 61.7171C94.8533 62.808 94.9917 63.9291 95.0822 65.053C95.1693 66.1352 95.2598 67.2591 95.3948 68.3385C95.617 70.5001 95.8426 72.7034 96.0169 74.868C96.41 79.1526 96.8065 83.4788 97.1517 87.7662C97.2489 88.9734 97.346 90.1805 97.3953 91.3905C97.4456 92.0149 97.4446 92.6006 97.4949 93.225C97.5452 93.8493 97.5475 94.4766 97.6936 95.0952C97.7549 95.2589 98.0424 95.2415 98.077 95.0722C98.2328 94.0171 98.0464 92.899 98.0106 91.8554C97.9234 90.7732 97.8808 89.6464 97.7937 88.5641C97.6194 86.3996 97.4418 84.1934 97.2675 82.0289C96.8677 77.661 96.4712 73.3348 96.0235 68.9699C95.9263 67.7628 95.7812 66.5585 95.6361 65.3542C95.491 64.15 95.4383 62.8983 95.1461 61.6611C95.1361 61.5362 94.9477 61.5894 94.9099 61.7171Z" fill="#D8E5E5"/>
</g>
</g>
<path id="Rope_3" d="M82.7125 51.9256C82.7125 51.9256 85.6468 49.2428 89.7994 49.122M97.2408 51.9256C94.587 49.725 92.0192 49.0575 89.7994 49.122M89.7994 49.122V0" stroke="#0D0842"/>
</g>
</g>
<g id="Books_8">
<g id="Books_9">
<g id="Books_10">
<g id="Group_29">
<path id="Vector_34" d="M126.22 96.7461L126.978 68.2629C127.02 66.8621 125.706 65.3343 124.021 65.0342C123.051 64.8592 120.517 64.8105 119.386 65.0528C117.66 65.4572 117.401 66.8 117.077 68.0525L116.319 96.5357C116.319 96.5357 118.17 95.3042 121.298 95.3302C124.538 95.3319 126.22 96.7461 126.22 96.7461Z" fill="#E7EFF2"/>
<path id="Vector_35" d="M116.329 97.0201C116.34 96.6351 116.342 96.2173 116.352 95.8323C116.392 95.1279 116.386 94.3987 116.426 93.6943C116.486 92.6377 116.508 91.5892 116.559 90.4997C116.651 88.4274 116.696 86.3303 116.788 84.2579C116.933 80.539 116.903 70.1429 117.033 68.0624C117.281 64.565 125.46 64.2052 126.729 67.8301C126.869 68.1828 126.727 73.8842 126.712 75.2441L126.56 81.1912C126.456 83.9272 126.305 86.6384 126.155 89.3496C126.075 90.6191 126.033 91.8806 125.991 93.1421C125.939 94.3708 125.982 95.6489 125.808 96.8691C125.75 97.2293 126.202 97.5502 126.597 97.5351C127.021 97.4972 127.475 97.2428 127.419 96.9068C127.272 95.8249 127.352 94.6946 127.355 93.5805C127.359 92.4663 127.401 91.3441 127.433 90.1891C127.507 87.9119 127.581 85.6346 127.692 83.3493C127.827 79.8762 128.028 76.3541 127.88 72.8719L128.04 67.5146L128.516 49.7387C128.567 48.6493 127.892 47.6805 126.895 47.1286C126.698 46.9969 126.509 46.898 126.359 46.791C125.785 46.4616 125.146 46.1811 124.487 45.9742C123.207 45.5525 121.785 45.3351 120.409 45.421C118.949 45.4902 117.6 45.9531 117.011 47.1227C116.964 47.2373 116.879 47.3599 116.84 47.5073C116.433 48.186 116.242 48.9227 116.126 49.6433C115.982 50.4047 115.876 51.1581 115.855 51.9281C115.746 53.5171 115.712 55.0899 115.65 56.7036C115.535 59.9638 115.457 63.2159 115.371 66.4352C115.179 72.9475 115.033 79.4846 114.841 85.9969C114.716 89.6421 114.552 93.2953 114.511 96.9572C114.47 97.9401 116.326 97.995 116.329 97.0201Z" fill="#F6CF3C"/>
<g id="Group_30">
<path id="Vector_36" d="M125.908 62.5791C125.795 62.4639 125.815 62.39 125.674 62.3157C125.523 62.2085 125.345 62.1422 125.157 62.0431C124.837 61.9025 124.48 61.7699 124.132 61.6703C123.389 61.4461 122.57 61.3777 121.77 61.3749C121.007 61.3641 120.197 61.4681 119.452 61.6625C119.076 61.7433 118.717 61.8898 118.397 62.0282C118.114 62.1586 117.633 62.2965 117.547 62.5588C117.509 62.7064 117.613 62.7888 117.782 62.8223C118.074 62.8643 118.404 62.6192 118.649 62.4969C118.97 62.3585 119.3 62.2529 119.677 62.1721C120.346 61.9938 121.08 61.9061 121.796 61.8921C122.512 61.8781 123.217 61.9708 123.866 62.1454C124.205 62.2122 124.553 62.3119 124.873 62.4525C125.051 62.5188 125.183 62.5603 125.362 62.6265C125.54 62.6928 125.654 62.6686 125.823 62.702C125.908 62.7187 125.964 62.6368 125.908 62.5791Z" fill="#E7EFF2"/>
</g>
<g id="Group_31">
<path id="Vector_37" d="M126.66 49.4753C126.463 49.204 126.135 49.0307 125.843 48.8492C125.467 48.6512 125.054 48.4612 124.649 48.304C123.803 47.9977 122.9 47.7733 121.987 47.6555C120.575 47.4705 118.841 47.8422 117.85 48.7166C117.5 49.0354 118.064 49.472 118.385 49.1941C119.273 48.3768 120.761 48.1273 122.041 48.2709C122.87 48.372 123.65 48.5878 124.44 48.8365C124.798 48.9689 125.155 49.1013 125.522 49.2665C125.841 49.407 126.133 49.5884 126.471 49.6551C126.603 49.6966 126.735 49.5986 126.66 49.4753Z" fill="#E7EFF2"/>
</g>
<g id="Group_32">
<path id="Vector_38" d="M125.101 68.8381C125.062 71.9425 125.051 75.006 125.011 78.1104C124.96 82.0175 124.748 85.924 124.574 89.8225C124.472 91.8618 124.361 93.8683 124.298 95.8996C124.268 96.2189 124.871 96.2292 124.901 95.9098C125.046 92.1914 125.182 88.4403 125.28 84.6972C125.388 80.9868 125.533 77.2685 125.555 73.5415C125.552 71.9769 125.548 70.4124 125.384 68.8473C125.375 68.6752 125.092 68.6661 125.101 68.8381Z" fill="#D8E5E5"/>
</g>
<g id="Group_33">
<path id="Vector_39" d="M123.476 67.7614C123.284 68.6372 123.394 69.5878 123.362 70.4641C123.378 71.3652 123.384 72.2335 123.362 73.1427C123.356 74.953 123.359 76.796 123.314 78.6144C123.264 82.243 123.138 85.8877 122.927 89.5157C122.788 91.5631 122.695 93.6352 122.481 95.6987C122.461 96.0508 123.149 96.0778 123.169 95.7256C123.543 88.4448 123.88 81.172 123.897 73.8981C123.891 72.8906 123.876 71.8502 123.87 70.8427C123.864 69.8351 123.962 68.7705 123.692 67.8194C123.721 67.6393 123.514 67.614 123.476 67.7614Z" fill="#D8E5E5"/>
</g>
<g id="Group_34">
<path id="Vector_40" d="M120.425 67.7216C120.328 68.6469 120.353 69.5808 120.331 70.49C120.309 71.3991 120.296 72.3411 120.274 73.2503C120.192 75.0767 120.11 76.9032 119.943 78.7129C119.686 82.3163 119.315 85.9439 119.141 89.564C119.049 91.6361 118.995 93.7002 118.978 95.7562C118.958 96.1084 119.637 96.1025 119.619 95.7584C119.462 92.1044 119.768 88.3865 120.016 84.7503C120.303 81.106 120.636 77.4865 120.762 73.8417C120.784 72.7933 120.854 71.7696 120.839 70.7292C120.833 69.7217 120.856 68.6732 120.69 67.6651C120.728 67.5178 120.464 67.5742 120.425 67.7216Z" fill="#D8E5E5"/>
</g>
<g id="Group_35">
<path id="Vector_41" d="M122.233 67.611C122.136 68.5363 122.161 69.4702 122.139 70.3794C122.117 71.2885 122.104 72.2305 122.082 73.1397C122 74.9661 121.918 76.7926 121.751 78.6023C121.494 82.2057 121.122 85.8333 120.949 89.4534C120.857 91.5255 120.803 93.5896 120.786 95.6456C120.766 95.9977 121.445 95.9918 121.427 95.6477C121.27 91.9938 121.576 88.2759 121.824 84.6397C122.11 80.9954 122.444 77.3759 122.57 73.7311C122.592 72.6827 122.662 71.659 122.647 70.6186C122.641 69.611 122.664 68.5626 122.497 67.5545C122.498 67.4152 122.234 67.4717 122.233 67.611Z" fill="#D8E5E5"/>
</g>
<g id="Group_36">
<path id="Vector_42" d="M118.426 68.7079C118.453 71.9027 118.545 75.0485 118.411 78.2427C118.267 81.8219 117.962 85.4005 117.704 89.0039C117.535 91.3707 117.367 93.7374 117.151 96.0795C117.122 96.3988 117.772 96.4338 117.792 96.0816C118.033 91.8556 118.359 87.6463 118.647 83.4451C118.847 80.2019 119.048 76.9588 119.05 73.7232C119.056 72.0521 119.052 70.3483 118.709 68.717C118.663 68.553 118.427 68.5686 118.426 68.7079Z" fill="#D8E5E5"/>
</g>
</g>
</g>
<path id="Rope_4" d="M115.63 56.8562C115.797 56.6771 117.813 55.8768 120.312 55.6234M128.285 58.0888C126.183 55.7045 122.974 55.3536 120.312 55.6234M120.312 0V55.6234" stroke="#0D0842"/>
</g>
<g id="Books_11">
<g id="Books_12">
<g id="Group_37">
<path id="Vector_43" d="M158.382 66.5717C158.346 65.1554 159.258 63.9923 160.477 63.9614L163.401 63.8806C164.583 63.8594 165.586 64.9893 165.649 66.3632L166.217 85.783L166.826 85.7675C166.94 85.3817 166.978 85.0155 166.993 84.5837L165.579 36.2288C165.517 34.4984 164.337 33.0935 162.956 33.1307L159.174 33.2201C157.793 33.2573 156.685 34.685 156.747 36.4154L158.161 84.7704C158.183 85.1923 158.243 85.6046 158.367 85.9645L158.976 85.9491L158.382 66.5717Z" fill="#60C697"/>
<path id="Vector_44" d="M158.425 66.6688C158.389 65.2524 159.301 64.0892 160.52 64.0582L163.443 63.9773C164.625 63.9561 165.628 65.086 165.69 66.4599L166.263 85.773L167.072 85.7414L166.151 55.0414C166.089 53.3109 164.909 51.9059 163.528 51.9432L159.747 52.0327C158.366 52.07 157.258 53.4979 157.32 55.2284L158.241 85.9285L159.05 85.8969L158.425 66.6688Z" fill="#60C697"/>
<path id="Vector_45" d="M166.2 85.4684L165.331 55.7536C165.272 54.2717 164.295 53.0993 163.076 53.1303L160.152 53.2112C158.971 53.2324 158.033 54.438 158.054 55.9296L158.922 85.6444C158.922 85.6444 160.215 84.2757 162.48 84.1874C164.896 84.06 166.2 85.4684 166.2 85.4684Z" fill="#E7EFF2"/>
</g>
<g id="Group_38">
<path id="Vector_46" d="M164.665 52.3956C164.626 53.4747 164.749 54.5476 164.786 55.6073C164.822 56.667 164.956 57.7726 165.117 58.8357C165.363 60.9815 165.582 63.1697 165.704 65.312C166.007 69.6523 166.063 73.9857 166.005 78.3483C165.991 80.8109 165.89 83.2603 165.789 85.7096C165.758 86.573 167.264 86.5394 167.295 85.6761C167.61 76.9348 167.639 68.1963 166.622 59.5151C166.491 58.3016 166.312 57.0651 166.02 55.8578C165.855 55.2591 165.664 54.7028 165.499 54.104C165.334 53.5053 165.18 52.9393 164.94 52.36C164.884 52.1964 164.646 52.2222 164.665 52.3956Z" fill="#60C697"/>
</g>
<g id="Group_39">
<path id="Vector_47" d="M157.298 34.742C157.437 34.6701 157.539 34.608 157.689 34.5689L157.678 34.5361C157.539 34.608 157.4 34.6799 157.298 34.742C157.272 34.7845 157.261 34.7517 157.298 34.742Z" fill="#F3B953"/>
</g>
<g id="Group_40">
<path id="Vector_48" d="M157.796 33.976C157.125 34.2922 156.718 34.8966 156.619 35.5636C156.479 36.3483 156.414 37.1136 156.349 37.8788C156.189 39.5596 156.078 41.2634 156.005 42.9574C155.891 46.4436 155.978 49.9138 156.102 53.3742C156.199 56.8771 156.41 60.3507 156.458 63.8307C156.518 67.3433 156.653 70.8365 156.886 74.3755C157.016 76.3021 157.119 78.2711 157.335 80.2109C157.424 81.1856 157.562 82.1834 157.651 83.1581C157.752 84.1656 157.826 85.2156 158.114 86.1743C158.324 86.9039 159.476 86.6768 159.515 85.9541C159.583 85.0809 159.453 84.2239 159.371 83.3897C159.278 82.5229 159.234 81.679 159.178 80.8025C159.041 79.0917 158.904 77.381 158.804 75.6606C158.567 72.2294 158.406 68.7788 158.331 65.3413C158.267 61.9366 158.128 58.5513 158.027 55.1564C157.876 51.7384 157.737 48.3532 157.749 44.929C157.755 43.0386 157.847 41.1614 157.978 39.2745C158.035 38.3687 158.168 37.4433 158.252 36.495C158.275 36.204 158.286 35.8802 158.321 35.6219C158.381 35.3211 158.318 35.0168 158.562 34.7752C158.977 34.3114 158.364 33.7218 157.796 33.976Z" fill="#60C697"/>
</g>
<g id="Group_41">
<path id="Vector_49" d="M164.561 34.4224C164.4 34.0718 164.1 33.7931 163.773 33.5568C163.446 33.3206 163.108 33.0516 162.728 32.9005C161.834 32.562 160.815 32.5769 159.845 32.6149C158.961 32.666 158.168 32.9793 157.611 33.6236C157.144 34.1731 156.575 35.1415 157.161 35.7743C157.292 35.9186 157.578 35.9157 157.717 35.8439C158.262 35.5237 158.214 34.7869 158.629 34.3225C159.058 33.7828 159.693 33.7247 160.378 33.6897C161.1 33.6448 161.87 33.623 162.592 33.9351C163.178 34.2109 163.704 34.788 164.441 34.6678C164.516 34.6483 164.584 34.4879 164.561 34.4224Z" fill="#60C697"/>
</g>
<g id="Group_42">
<path id="Vector_50" d="M161.551 33.7394C162.255 33.5214 163.097 33.9447 163.541 34.4C164.116 34.9994 164.258 35.8891 164.329 36.6905C164.53 38.7053 164.618 40.7495 164.743 42.7838C164.979 46.9277 165.091 51.0682 165.128 55.2281C165.149 56.363 165.133 57.5076 165.154 58.6424C165.146 59.2147 165.175 59.7773 165.167 60.3496C165.182 60.6308 165.208 60.9448 165.26 61.2164C165.324 61.5206 165.5 61.7956 165.575 62.1326C165.639 62.4368 166.2 62.3985 166.271 62.1304C166.343 61.8624 166.464 61.6173 166.536 61.3492C166.608 61.0812 166.619 60.7574 166.605 60.4762C166.613 59.9039 166.583 59.3413 166.592 58.769C166.582 57.6669 166.534 56.5745 166.535 55.5051C166.478 53.3106 166.431 51.1488 166.336 48.9641C166.267 46.7369 166.16 44.5194 166.043 42.2692C165.995 41.1768 165.91 40.0942 165.824 39.0116C165.761 37.9944 165.699 36.9772 165.523 35.9893C165.347 35.0014 164.961 33.9967 164.077 33.3347C163.216 32.7381 162.139 32.5892 161.235 33.1797C160.919 33.3329 161.136 33.8466 161.551 33.7394Z" fill="#60C697"/>
</g>
<g id="Group_43">
<path id="Vector_51" d="M165.991 57.0071C166.172 56.4608 166.045 55.8519 165.941 55.3084C165.798 54.7748 165.558 54.1952 165.202 53.7529C164.323 52.6259 162.97 52.2641 161.533 52.1379C160.815 52.0748 160.097 52.0117 159.409 52.1548C158.645 52.3174 158.081 52.8207 157.662 53.3929C156.921 54.3345 155.82 56.2608 157.079 57.1821C157.297 57.3395 157.669 57.3498 157.827 57.0947C157.974 56.8069 158.042 56.6466 158.103 56.3456C158.148 56.1198 158.22 55.8515 158.303 55.616C158.458 55.1122 158.721 54.6871 159.023 54.2522C159.271 53.9023 159.554 53.6507 160.016 53.5662C160.565 53.4949 161.159 53.5545 161.705 53.5913C162.72 53.6842 163.543 53.934 164.136 54.7072C164.681 55.4574 164.77 56.4328 165.367 57.0979C165.521 57.3076 165.882 57.2851 165.991 57.0071Z" fill="#60C697"/>
</g>
<path id="Vector_52" d="M164.474 50.3412C164.524 50.0075 164.565 49.533 164.34 49.235C164.43 49.1402 164.483 49.0552 164.438 48.9242C164.187 48.312 163.473 48.141 162.845 47.9833C162.179 47.8353 161.51 47.7953 160.826 47.8306C160.179 47.8561 159.382 47.9206 158.825 48.208C158.054 48.5868 158.41 49.3856 158.575 49.9847C158.665 50.2465 158.992 50.4825 159.315 50.4698C160.037 50.4247 160.819 50.4354 161.526 50.4656C162.233 50.4958 163.027 50.5393 163.714 50.7527C163.996 50.8577 164.414 50.6422 164.474 50.3412Z" fill="#E7EFF2"/>
<g id="Group_44">
<path id="Vector_53" d="M159.315 34.6442C159.093 34.9514 159.126 35.406 159.088 35.7723C159.073 36.204 159.046 36.603 159.068 37.025C159.063 37.8459 159.081 38.7323 159.238 39.547C159.365 40.1555 160.367 39.9673 160.375 39.3949C160.38 38.574 160.222 37.7594 160.152 36.9579C160.103 36.5784 160.081 36.1565 160.033 35.777C159.996 35.4302 159.974 35.0083 159.774 34.6678C159.669 34.4813 159.421 34.4743 159.315 34.6442Z" fill="#E7EFF2"/>
</g>
<g id="Group_45">
<path id="Vector_54" d="M161.089 34.6808C160.64 35.7595 160.74 37.1236 160.961 38.2426C161.024 38.5469 161.227 38.7794 161.589 38.757C161.875 38.7542 162.195 38.493 162.18 38.2116C162.102 37.626 162.012 37.0077 161.971 36.4123C161.931 35.817 161.89 35.2216 161.736 34.6555C161.635 34.361 161.21 34.4356 161.089 34.6808Z" fill="#E7EFF2"/>
</g>
<g id="Group_46">
<path id="Vector_55" d="M162.766 34.6715C162.554 35.3679 162.674 36.1923 162.673 36.9053C162.672 37.2618 162.721 37.6413 162.732 38.0305C162.743 38.4198 162.742 38.7763 162.952 39.1495C163.118 39.3917 163.577 39.4153 163.724 39.1277C163.886 38.7649 163.86 38.4509 163.861 38.0944C163.85 37.7051 163.839 37.3159 163.779 36.9037C163.694 36.1775 163.736 35.3468 163.424 34.6791C163.274 34.3616 162.864 34.361 162.766 34.6715Z" fill="#E7EFF2"/>
</g>
<g id="Group_47">
<path id="Vector_56" d="M163.215 55.4463C163.18 56.4176 163.292 57.4577 163.343 58.4422C163.384 59.394 163.462 60.336 163.502 61.2877C163.594 63.2239 163.735 65.1832 163.826 67.1194C164.036 70.9494 164.047 74.7954 164.17 78.6122C164.228 80.8067 164.275 82.9685 164.283 85.1401C164.29 85.6372 165.148 85.6288 165.141 85.1316C165.082 81.2626 164.974 77.3707 164.779 73.4655C164.687 71.5293 164.546 69.5701 164.454 67.6338C164.363 65.6976 164.271 63.7614 164.13 61.8022C164.045 60.7195 163.959 59.6369 163.874 58.5542C163.8 57.5043 163.752 56.4119 163.565 55.3913C163.536 55.1852 163.197 55.2729 163.215 55.4463Z" fill="#D8E5E5"/>
</g>
<g id="Group_48">
<path id="Vector_57" d="M161.772 54.1113C162.083 62.0491 162.394 69.9869 162.618 77.9115C162.687 80.1388 162.756 82.366 162.824 84.5933C162.831 85.0904 163.678 85.0493 163.683 84.5849C163.41 76.6373 163.024 68.719 162.589 60.7777C162.471 58.5275 162.327 56.3197 162.171 54.0792C162.104 53.8829 161.743 53.9052 161.772 54.1113Z" fill="#D8E5E5"/>
</g>
<g id="Group_49">
<path id="Vector_58" d="M160.272 54.7518C160.015 55.6736 160.165 56.7041 160.194 57.6231C160.234 58.5748 160.274 59.5266 160.315 60.4784C160.38 62.4571 160.483 64.426 160.548 66.4047C160.694 70.2869 160.814 74.2116 160.96 78.0938C161.029 80.3211 161.087 82.5156 161.156 84.7429C161.174 85.2727 162.07 85.2545 162.051 84.7247C161.823 76.908 161.471 69.0879 161.033 61.2546C160.985 60.1622 160.9 59.0795 160.852 57.9871C160.823 57.4246 160.804 56.8948 160.737 56.342C160.67 55.7891 160.652 55.2593 160.472 54.7358C160.449 54.6703 160.325 54.6668 160.272 54.7518Z" fill="#D8E5E5"/>
</g>
<g id="Group_50">
<path id="Vector_59" d="M159.185 56.3541C159.143 56.8283 159.078 57.237 159.074 57.7014C159.07 58.1658 159.028 58.6399 159.035 59.137C159.026 60.0658 159.017 60.9946 159.009 61.9234C159.018 63.7385 159.016 65.5208 159.1 67.3164C159.205 70.9598 159.397 74.6165 159.626 78.2633C159.725 80.3402 159.873 82.4401 160.048 84.4974C160.058 84.8866 160.755 84.8845 160.695 84.4723C160.113 77.1751 159.903 69.8882 159.644 62.5785C159.608 61.5188 159.583 60.4918 159.509 59.4419C159.49 58.9121 159.472 58.3822 159.465 57.8851C159.447 57.3553 159.391 56.8352 159.335 56.3151C159.324 56.2824 159.2 56.2789 159.185 56.3541Z" fill="#D8E5E5"/>
</g>
</g>
<path id="Rope_5" d="M155.953 44.6837C155.953 44.6837 158.089 43.2643 160.81 43.0636M166.125 44.6837C164.373 43.2767 162.481 42.9403 160.81 43.0636M160.81 0.308105V43.0636" stroke="#0D0842"/>
</g>
<g id="Books_13">
<g id="Books_14">
<g id="Group_51">
<path id="Vector_60" d="M189.087 96.2467L185.87 64.0665C185.695 62.4877 185.638 59.3958 187.357 59.2493L192.995 58.8223C194.713 58.6758 196.444 61.6658 196.619 63.2447L199.546 95.4007C199.546 95.4007 197.474 94.1465 194.174 94.3475C190.729 94.5572 189.087 96.2467 189.087 96.2467Z" fill="#E7EFF2"/>
</g>
<path id="Vector_61" d="M194.659 40.0235C193.362 38.8474 190.748 38.0441 188.646 38.2137C186.926 38.36 183.037 40.2277 182.699 42.0051C182.576 42.2635 182.507 42.6024 182.479 42.855C182.389 43.5298 182.395 44.1987 182.356 44.9122C182.373 46.919 182.486 48.9199 182.647 50.918C182.94 55.1668 183.425 59.4039 183.719 63.6527C184.027 67.4823 184.434 71.3478 184.886 75.1686C185.33 78.9063 185.728 82.6468 186.125 86.3874C186.333 88.3825 186.634 90.3302 186.986 92.3167C187.078 92.8549 187.166 93.3515 187.305 93.8868C187.308 93.9284 187.315 94.0117 187.318 94.0533C187.399 95.0523 187.527 96.0485 187.939 96.9855C188.116 97.3931 188.553 97.4501 189.008 97.1297C189.19 96.9932 189.229 96.2797 189.215 96.1132L186.031 64.8926C185.997 64.4763 185.961 64.0185 185.927 63.6022C185.96 62.2198 187.487 60.8722 190.11 60.0017C193.061 59.0276 195.444 61.1416 196.002 62.1116C196.168 62.9799 196.338 63.8899 196.504 64.7582L197.136 70.8269C197.143 70.9102 197.146 70.9518 197.153 71.035C197.28 72.6168 197.411 74.2403 197.586 75.8191C197.888 78.9798 198.238 82.1376 198.541 85.2983C198.733 87.0853 198.88 88.9169 199.024 90.7068C199.174 92.58 199.226 94.4174 199.472 96.2847C199.581 97.0311 200.774 96.9168 200.812 96.2033C200.825 94.5712 200.692 92.9061 200.558 91.2411C200.427 89.6176 200.296 87.9942 200.118 86.3737C199.812 83.1714 199.462 80.0136 199.157 76.8113C198.854 73.6506 198.648 70.4841 198.393 67.3205C198.343 66.6961 198.248 66.1163 198.15 65.4948C198.339 64.8558 198.228 64.0678 198.174 63.4018C198.063 62.6138 197.903 61.8288 197.836 60.9962C197.631 59.0427 197.669 57.1163 197.511 55.1598C197.197 51.247 196.639 47.307 196.133 43.4058C196.008 42.4513 195.835 41.4997 195.242 40.6992C195.082 40.4997 194.921 40.3003 194.764 40.1425C194.713 40.1038 194.71 40.0622 194.659 40.0235Z" fill="#F46041"/>
<g id="Group_52">
<path id="Vector_62" d="M187.342 63.1814C187.513 67.1029 188.258 70.99 188.665 74.8555C188.89 77.0588 189.016 79.2263 189.145 81.4353C189.271 83.6028 189.445 85.7674 189.571 87.9348C189.723 90.4353 189.924 92.9329 190.077 95.4334C190.103 95.7664 190.726 95.729 190.699 95.396C190.396 91.0223 190.093 86.6487 189.838 82.2721C189.549 78.065 189.303 73.8133 188.63 69.6292C188.265 67.4761 187.852 65.3259 187.585 63.2087C187.572 63.0422 187.332 63.0565 187.342 63.1814Z" fill="#D8E5E5"/>
</g>
<g id="Group_53">
<path id="Vector_63" d="M189.041 61.0705C188.939 62.206 189.122 63.2825 189.261 64.4035C189.396 65.4829 189.531 66.5623 189.621 67.6862C189.895 69.8866 190.12 72.0898 190.298 74.296C190.742 78.6193 191.094 82.9901 191.491 87.3163C191.695 89.8554 191.848 92.3559 192.148 94.8893C192.172 95.1807 192.699 95.1489 192.675 94.8575C192.413 90.3978 191.958 85.9496 191.552 81.4985C191.155 77.1723 190.756 72.8045 190.263 68.4841C190.115 67.2382 190.014 65.9894 189.866 64.7435C189.721 63.5392 189.62 62.2905 189.236 61.1006C189.226 60.9758 189.082 60.9844 189.041 61.0705Z" fill="#D8E5E5"/>
</g>
<g id="Group_54">
<path id="Vector_64" d="M190.989 60.7846C191.299 65.2415 191.898 69.681 192.304 74.1321C192.707 78.5415 193.011 82.9151 193.271 87.3332C193.427 89.8753 193.536 92.4202 193.692 94.9623C193.719 95.2953 194.342 95.2578 194.315 94.9248C193.841 86.0441 193.367 77.1633 192.317 68.3172C192.017 65.7838 191.669 63.2533 191.228 60.7702C191.17 60.6482 190.979 60.6597 190.989 60.7846Z" fill="#D8E5E5"/>
</g>
<g id="Group_55">
<path id="Vector_65" d="M192.686 60.9738C192.729 62.1006 193.011 63.213 193.15 64.334C193.288 65.455 193.474 66.5731 193.613 67.6941C193.883 69.8529 194.153 72.0117 194.327 74.1763C194.723 78.5025 194.979 82.879 195.28 87.2109C195.43 89.6698 195.631 92.1673 195.828 94.6232C195.859 94.9979 196.529 94.9574 196.499 94.5828C195.744 85.8026 195.52 77.0323 194.382 68.2752C194.233 67.0293 194.037 65.7863 193.84 64.5433C193.647 63.3419 193.448 62.0573 193.066 60.9091C192.954 60.7068 192.67 60.7657 192.686 60.9738Z" fill="#D8E5E5"/>
</g>
<g id="Group_56">
<path id="Vector_66" d="M194.91 61.7171C194.853 62.808 194.992 63.9291 195.082 65.053C195.169 66.1352 195.26 67.2591 195.395 68.3385C195.617 70.5001 195.843 72.7034 196.017 74.868C196.41 79.1526 196.806 83.4788 197.152 87.7662C197.249 88.9734 197.346 90.1805 197.395 91.3905C197.446 92.0149 197.445 92.6006 197.495 93.225C197.545 93.8493 197.548 94.4766 197.694 95.0952C197.755 95.2589 198.042 95.2415 198.077 95.0722C198.233 94.0171 198.046 92.899 198.011 91.8554C197.923 90.7732 197.881 89.6464 197.794 88.5641C197.619 86.3996 197.442 84.1934 197.268 82.0289C196.868 77.661 196.471 73.3348 196.024 68.9699C195.926 67.7628 195.781 66.5585 195.636 65.3542C195.491 64.15 195.438 62.8983 195.146 61.6611C195.136 61.5362 194.948 61.5894 194.91 61.7171Z" fill="#D8E5E5"/>
</g>
</g>
<path id="Rope_6" d="M182.712 51.9256C182.712 51.9256 185.647 49.2428 189.799 49.122M197.241 51.9256C194.587 49.725 192.019 49.0575 189.799 49.122M189.799 49.122V0" stroke="#0D0842"/>
</g>
</g>
</g>
</svg>
