<svg width="48" height="48" viewBox="0 0 48 48" fill="none" xmlns="http://www.w3.org/2000/svg">
<g id="Group 128">
<path id="Vector" d="M9.71429 8.28571C8.92857 8.28571 8.28571 8.92857 8.28571 9.71429V38.2857C8.28571 39.0714 8.92857 39.7143 9.71429 39.7143H38.2857C39.0714 39.7143 39.7143 39.0714 39.7143 38.2857V9.71429C39.7143 8.92857 39.0714 8.28571 38.2857 8.28571H9.71429ZM4 9.71429C4 6.5625 6.5625 4 9.71429 4H38.2857C41.4375 4 44 6.5625 44 9.71429V38.2857C44 41.4375 41.4375 44 38.2857 44H9.71429C6.5625 44 4 41.4375 4 38.2857V9.71429ZM21.8571 31.8571V26.1429H16.1429C14.9554 26.1429 14 25.1875 14 24C14 22.8125 14.9554 21.8571 16.1429 21.8571H21.8571V16.1429C21.8571 14.9554 22.8125 14 24 14C25.1875 14 26.1429 14.9554 26.1429 16.1429V21.8571H31.8571C33.0446 21.8571 34 22.8125 34 24C34 25.1875 33.0446 26.1429 31.8571 26.1429H26.1429V31.8571C26.1429 33.0446 25.1875 34 24 34C22.8125 34 21.8571 33.0446 21.8571 31.8571Z" fill="black"/>
</g>
</svg>
