<svg width="50" height="50" viewBox="0 0 50 50" fill="none" xmlns="http://www.w3.org/2000/svg">
<g id="Group 63">
<g id="Delete icon">
<path id="Vector" d="M13.8299 0.819972C10.6687 0.813482 8.09363 3.19987 8.08759 6.14153L8.03512 31.6998C8.03222 33.1165 8.62942 34.476 9.702 35.4782L23.1717 48.0559C23.708 48.557 24.4328 48.8418 25.194 48.8434C25.9552 48.845 26.6811 48.5631 27.2195 48.0642L40.7407 35.542C41.8174 34.5442 42.4202 33.1871 42.4231 31.7704L42.4756 6.21213C42.4816 3.27047 39.9164 0.873528 36.7552 0.867038L13.8299 0.819972ZM17.9866 26.2452C17.1465 25.4602 17.1491 24.1935 17.9924 23.4202L22.2094 19.5122L18.0085 15.5869C17.1683 14.8019 17.1709 13.5352 18.0143 12.7619C18.8577 11.9887 20.2189 11.9831 21.0501 12.7682L25.251 16.6935L29.468 12.7854C30.3114 12.0038 31.6726 12.0066 32.5038 12.7917C33.3351 13.5767 33.3414 14.8434 32.498 15.6167L28.2811 19.5247L32.482 23.45C33.3221 24.235 33.3195 25.5017 32.4762 26.275C31.6328 27.0482 30.2716 27.0538 29.4403 26.2687L25.2394 22.3434L21.0225 26.2515C20.1791 27.0331 18.8179 27.0303 17.9866 26.2452Z" fill="#1B4332"/>
</g>
</g>
</svg>
