<svg width="48" height="48" viewBox="0 0 48 48" fill="none" xmlns="http://www.w3.org/2000/svg">
<g id="Header / Logo" clip-path="url(#clip0_474_585)">
<g id="Group">
<g id="Vector" filter="url(#filter0_d_474_585)">
<path d="M24 43.25C34.6315 43.25 43.25 34.6315 43.25 24C43.25 13.3685 34.6315 4.75 24 4.75C13.3685 4.75 4.75 13.3685 4.75 24C4.75 34.6315 13.3685 43.25 24 43.25Z" fill="black"/>
</g>
<path id="Vector_2" d="M24 43.25C34.6315 43.25 43.25 34.6315 43.25 24C43.25 13.3685 34.6315 4.75 24 4.75C13.3685 4.75 4.75 13.3685 4.75 24C4.75 34.6315 13.3685 43.25 24 43.25Z" stroke="#BABABA" stroke-opacity="0.5" stroke-width="2"/>
<path id="Vector_3" d="M24 43.25C34.6315 43.25 43.25 34.6315 43.25 24C43.25 13.3685 34.6315 4.75 24 4.75C13.3685 4.75 4.75 13.3685 4.75 24C4.75 34.6315 13.3685 43.25 24 43.25Z" fill="url(#paint0_linear_474_585)"/>
<g id="Group_2">
<g id="Vector_4" filter="url(#filter1_d_474_585)">
<path d="M6.125 24.0117C6.125 31.9265 11.2417 38.6114 18.347 40.9816C19.2408 41.1383 19.5759 40.6017 19.5759 40.1325C19.5759 39.7073 19.5536 38.299 19.5536 36.8009C15.0625 37.6276 13.9006 35.7047 13.5431 34.6989C13.342 34.1846 12.4706 32.5972 11.7109 32.1723C11.0853 31.8368 10.1916 31.0098 11.6886 30.9874C13.0962 30.9651 14.1017 32.284 14.4369 32.8206C16.0456 35.5259 18.6152 34.7663 19.643 34.2963C19.7994 33.1338 20.2686 32.3507 20.7825 31.9038C16.8053 31.457 12.6494 29.9142 12.6494 23.0729C12.6494 21.1273 13.342 19.5175 14.4816 18.2656C14.3028 17.8187 13.6772 15.9851 14.6603 13.5252C14.6603 13.5252 16.1573 13.056 19.5759 15.3588C21.0059 14.9566 22.5253 14.7552 24.0447 14.7552C25.5641 14.7552 27.0834 14.9566 28.5134 15.3588C31.932 13.0337 33.4291 13.5256 33.4291 13.5256C34.4122 15.9848 33.7866 17.818 33.6078 18.2652C34.7473 19.5172 35.44 21.1046 35.44 23.0722C35.44 29.9362 31.2617 31.4563 27.2845 31.9038C27.9325 32.4628 28.4911 33.536 28.4911 35.2128C28.4911 37.6053 28.4688 39.5279 28.4688 40.1318C28.4688 40.6011 28.8039 41.1597 29.6977 40.9809C36.7583 38.6118 41.875 31.9045 41.875 24.012C41.875 14.1289 33.8759 6.125 24 6.125C14.1241 6.125 6.125 14.1292 6.125 24.0117Z" fill="#FF6726"/>
</g>
<path id="Vector_5" d="M6.125 24.0117C6.125 31.9265 11.2417 38.6114 18.347 40.9816C19.2408 41.1383 19.5759 40.6017 19.5759 40.1325C19.5759 39.7073 19.5536 38.299 19.5536 36.8009C15.0625 37.6276 13.9006 35.7047 13.5431 34.6989C13.342 34.1846 12.4706 32.5972 11.7109 32.1723C11.0853 31.8368 10.1916 31.0098 11.6886 30.9874C13.0962 30.9651 14.1017 32.284 14.4369 32.8206C16.0456 35.5259 18.6152 34.7663 19.643 34.2963C19.7994 33.1338 20.2686 32.3507 20.7825 31.9038C16.8053 31.457 12.6494 29.9142 12.6494 23.0729C12.6494 21.1273 13.342 19.5175 14.4816 18.2656C14.3028 17.8187 13.6772 15.9851 14.6603 13.5252C14.6603 13.5252 16.1573 13.056 19.5759 15.3588C21.0059 14.9566 22.5253 14.7552 24.0447 14.7552C25.5641 14.7552 27.0834 14.9566 28.5134 15.3588C31.932 13.0337 33.4291 13.5256 33.4291 13.5256C34.4122 15.9848 33.7866 17.818 33.6078 18.2652C34.7473 19.5172 35.44 21.1046 35.44 23.0722C35.44 29.9362 31.2617 31.4563 27.2845 31.9038C27.9325 32.4628 28.4911 33.536 28.4911 35.2128C28.4911 37.6053 28.4688 39.5279 28.4688 40.1318C28.4688 40.6011 28.8039 41.1597 29.6977 40.9809C36.7583 38.6118 41.875 31.9045 41.875 24.012C41.875 14.1289 33.8759 6.125 24 6.125C14.1241 6.125 6.125 14.1292 6.125 24.0117Z" fill="#FF6726"/>
<g id="Vector_6" filter="url(#filter2_i_474_585)">
<path d="M6.125 24.0117C6.125 31.9265 11.2417 38.6114 18.347 40.9816C19.2408 41.1383 19.5759 40.6017 19.5759 40.1325C19.5759 39.7073 19.5536 38.299 19.5536 36.8009C15.0625 37.6276 13.9006 35.7047 13.5431 34.6989C13.342 34.1846 12.4706 32.5972 11.7109 32.1723C11.0853 31.8368 10.1916 31.0098 11.6886 30.9874C13.0962 30.9651 14.1017 32.284 14.4369 32.8206C16.0456 35.5259 18.6152 34.7663 19.643 34.2963C19.7994 33.1338 20.2686 32.3507 20.7825 31.9038C16.8053 31.457 12.6494 29.9142 12.6494 23.0729C12.6494 21.1273 13.342 19.5175 14.4816 18.2656C14.3028 17.8187 13.6772 15.9851 14.6603 13.5252C14.6603 13.5252 16.1573 13.056 19.5759 15.3588C21.0059 14.9566 22.5253 14.7552 24.0447 14.7552C25.5641 14.7552 27.0834 14.9566 28.5134 15.3588C31.932 13.0337 33.4291 13.5256 33.4291 13.5256C34.4122 15.9848 33.7866 17.818 33.6078 18.2652C34.7473 19.5172 35.44 21.1046 35.44 23.0722C35.44 29.9362 31.2617 31.4563 27.2845 31.9038C27.9325 32.4628 28.4911 33.536 28.4911 35.2128C28.4911 37.6053 28.4688 39.5279 28.4688 40.1318C28.4688 40.6011 28.8039 41.1597 29.6977 40.9809C36.7583 38.6118 41.875 31.9045 41.875 24.012C41.875 14.1289 33.8759 6.125 24 6.125C14.1241 6.125 6.125 14.1292 6.125 24.0117Z" fill="#FF6726"/>
</g>
</g>
</g>
</g>
<defs>
<filter id="filter0_d_474_585" x="0.75" y="2.75" width="46.5" height="46.5" filterUnits="userSpaceOnUse" color-interpolation-filters="sRGB">
<feFlood flood-opacity="0" result="BackgroundImageFix"/>
<feColorMatrix in="SourceAlpha" type="matrix" values="0 0 0 0 0 0 0 0 0 0 0 0 0 0 0 0 0 0 127 0" result="hardAlpha"/>
<feOffset dy="2"/>
<feGaussianBlur stdDeviation="2"/>
<feColorMatrix type="matrix" values="0 0 0 0 0 0 0 0 0 0 0 0 0 0 0 0 0 0 0.240942 0"/>
<feBlend mode="normal" in2="BackgroundImageFix" result="effect1_dropShadow_474_585"/>
<feBlend mode="normal" in="SourceGraphic" in2="effect1_dropShadow_474_585" result="shape"/>
</filter>
<filter id="filter1_d_474_585" x="2.125" y="3.125" width="43.75" height="42.89" filterUnits="userSpaceOnUse" color-interpolation-filters="sRGB">
<feFlood flood-opacity="0" result="BackgroundImageFix"/>
<feColorMatrix in="SourceAlpha" type="matrix" values="0 0 0 0 0 0 0 0 0 0 0 0 0 0 0 0 0 0 127 0" result="hardAlpha"/>
<feOffset dy="1"/>
<feGaussianBlur stdDeviation="2"/>
<feColorMatrix type="matrix" values="0 0 0 0 1 0 0 0 0 1 0 0 0 0 1 0 0 0 0.529297 0"/>
<feBlend mode="normal" in2="BackgroundImageFix" result="effect1_dropShadow_474_585"/>
<feBlend mode="normal" in="SourceGraphic" in2="effect1_dropShadow_474_585" result="shape"/>
</filter>
<filter id="filter2_i_474_585" x="6.125" y="6.125" width="35.75" height="34.89" filterUnits="userSpaceOnUse" color-interpolation-filters="sRGB">
<feFlood flood-opacity="0" result="BackgroundImageFix"/>
<feBlend mode="normal" in="SourceGraphic" in2="BackgroundImageFix" result="shape"/>
<feColorMatrix in="SourceAlpha" type="matrix" values="0 0 0 0 0 0 0 0 0 0 0 0 0 0 0 0 0 0 127 0" result="hardAlpha"/>
<feOffset/>
<feGaussianBlur stdDeviation="1"/>
<feComposite in2="hardAlpha" operator="arithmetic" k2="-1" k3="1"/>
<feColorMatrix type="matrix" values="0 0 0 0 0.258824 0 0 0 0 0.137255 0 0 0 0 0.431373 0 0 0 0.70355 0"/>
<feBlend mode="normal" in2="shape" result="effect1_innerShadow_474_585"/>
</filter>
<linearGradient id="paint0_linear_474_585" x1="24" y1="4.75" x2="24" y2="43.25" gradientUnits="userSpaceOnUse">
<stop stop-color="#FEFEFE"/>
<stop offset="1" stop-color="#E0E0E0"/>
</linearGradient>
<clipPath id="clip0_474_585">
<rect width="48" height="48" fill="white"/>
</clipPath>
</defs>
</svg>
