<svg width="48" height="48" viewBox="0 0 48 48" fill="none" xmlns="http://www.w3.org/2000/svg">
<g id="Group 111">
<g id="Group 109">
<path id="Vector" d="M42 24.8972C42 23.7041 41.9005 22.5154 41.6925 21.339L24.8524 21.339L24.8524 28.0774L34.4964 28.0774C34.0978 30.2514 32.811 32.1746 30.9309 33.3933L30.9309 37.771L36.6885 37.771C40.0591 34.7308 42 30.2258 42 24.8972Z" fill="#4285F4"/>
<path id="Vector_2" d="M24.8525 42C29.6703 42 33.7298 40.4502 36.6886 37.7752L30.9311 33.3975C29.328 34.4633 27.2658 35.0705 24.8525 35.0705C20.1953 35.0705 16.2441 31.9924 14.8275 27.8481L8.90085 27.8481L8.90085 32.3573C11.9334 38.2721 18.1028 42 24.8525 42Z" fill="#34A853"/>
<path id="Vector_3" d="M14.8318 27.8481C14.0824 25.6785 14.0824 23.3219 14.8318 21.1482L14.8318 16.6432L8.901 16.6432C6.36633 21.5895 6.36633 27.415 8.901 32.3616L14.8318 27.8481Z" fill="#FBBC04"/>
<path id="Vector_4" d="M24.8525 13.9302C27.4001 13.892 29.8565 14.8305 31.702 16.5543L36.8013 11.561C33.5695 8.58899 29.2891 6.95423 24.8525 7.00098C18.1028 7.00098 11.9292 10.733 8.90086 16.6434L14.8317 21.1525C16.2441 17.0042 20.1953 13.9302 24.8525 13.9302Z" fill="#EA4335"/>
</g>
</g>
</svg>
