<svg width="48" height="48" viewBox="0 0 48 48" fill="none" xmlns="http://www.w3.org/2000/svg">
<g id="Group 129">
<path id="Vector" d="M23.9978 4C23.2002 4 22.403 4.28108 21.753 4.84517L3.69003 20.5199C3.02038 21.1008 2.78202 22.1138 3.2267 22.8938C3.79307 23.8865 5.04638 24.0805 5.86135 23.3732L6.49052 22.8281V39.4545C6.49052 41.9645 8.45046 44 10.8673 44H37.1283C39.5452 44 41.5052 41.9645 41.5052 39.4545V22.8299L42.1343 23.375C42.4617 23.6595 42.8585 23.7976 43.2542 23.7976C43.8626 23.7976 44.4662 23.4697 44.7997 22.8388C45.2068 22.0679 44.9671 21.0942 44.3176 20.5305L41.5052 18.0891V10.3636C41.5052 9.35909 40.7217 8.54545 39.7544 8.54545H38.0037C37.0364 8.54545 36.253 9.35909 36.253 10.3636V13.5313L26.2427 4.84517C25.5927 4.28108 24.7955 4 23.9978 4ZM23.9978 7.77486C24.0983 7.77486 24.1981 7.81048 24.2799 7.88139L38.0037 19.7901V38.5455C38.0037 39.55 37.2202 40.3636 36.253 40.3636H29.25V27.6364C29.25 26.6318 28.4666 25.8182 27.4993 25.8182H20.4964C19.5291 25.8182 18.7456 26.6318 18.7456 27.6364V40.3636H11.7427C10.7754 40.3636 9.99198 39.55 9.99198 38.5455V19.7884L23.7157 7.88139C23.7976 7.81048 23.8974 7.77486 23.9978 7.77486Z" fill="#FF6726"/>
</g>
</svg>
