<svg width="48" height="48" viewBox="0 0 48 48" fill="none" xmlns="http://www.w3.org/2000/svg">
<g id="Group 127">
<g id="Group 126">
<path id="Vector" d="M12 4C7.58172 4 4 7.58172 4 12V18H8V12C8 9.79086 9.79086 8 12 8H36C38.2092 8 40 9.79086 40 12V36C40 38.2092 38.2092 40 36 40H12C9.79086 40 8 38.2092 8 36V30H4V36C4 40.4182 7.58172 44 12 44H36C40.4182 44 44 40.4182 44 36V12C44 7.58172 40.4182 4 36 4H12Z" fill="#FF6726"/>
<path id="Vector_2" d="M6 21.9999C4.89544 21.9999 4 22.8953 4 23.9999C4 25.1045 4.89544 25.9999 6 25.9999H25.165L20.0938 31.0709C19.3128 31.8521 19.3128 33.1183 20.0938 33.8995C20.8748 34.6805 22.1412 34.6805 22.9222 33.8995L31.3136 25.5081C31.7342 25.1413 32 24.6017 32 23.9999C32 23.3981 31.7342 22.8585 31.3136 22.4917L22.9222 14.1004C22.1412 13.3194 20.8748 13.3194 20.0938 14.1004C19.3128 14.8815 19.3128 16.1478 20.0938 16.9289L25.165 21.9999H6Z" fill="#FF6726"/>
</g>
</g>
</svg>
