<svg width="48" height="48" viewBox="0 0 48 48" fill="none" xmlns="http://www.w3.org/2000/svg">
<g id="Group 113">
<g id="Group 112">
<path id="Vector" d="M10.8 2C5.93989 2 2 5.93989 2 10.8V17.4H6.4V10.8C6.4 8.36995 8.36995 6.4 10.8 6.4H37.2C39.6301 6.4 41.6 8.36995 41.6 10.8V37.2C41.6 39.6301 39.6301 41.6 37.2 41.6H10.8C8.36995 41.6 6.4 39.6301 6.4 37.2V30.6H2V37.2C2 42.06 5.93989 46 10.8 46H37.2C42.06 46 46 42.06 46 37.2V10.8C46 5.93989 42.06 2 37.2 2H10.8Z" fill="black"/>
<path id="Vector_2" d="M4.2 21.7999C2.98498 21.7999 2 22.7848 2 23.9999C2 25.2149 2.98498 26.1999 4.2 26.1999H25.2815L19.7032 31.778C18.8441 32.6373 18.8441 34.0301 19.7032 34.8894C20.5623 35.7485 21.9553 35.7485 22.8144 34.8894L32.045 25.6589C32.5076 25.2554 32.8 24.6619 32.8 23.9999C32.8 23.3379 32.5076 22.7443 32.045 22.3409L22.8144 13.1104C21.9553 12.2513 20.5623 12.2513 19.7032 13.1104C18.8441 13.9696 18.8441 15.3626 19.7032 16.2217L25.2815 21.7999H4.2Z" fill="black"/>
</g>
</g>
</svg>
